<svg width="111" height="39" viewBox="0 0 111 39" fill="none" xmlns="http://www.w3.org/2000/svg">
<path d="M18.48 27.088L21.072 11.2H24.528L21.768 28H15.168L12.72 12.28L10.248 28H3.768L1.008 11.2H4.44L7.056 27.04L9.552 11.2H15.984L18.48 27.088ZM30.5684 15.376C32.6484 15.376 34.3124 16.128 35.5604 17.632C36.8244 19.12 37.2884 20.896 36.9524 22.96H27.4004C27.6244 23.712 28.0324 24.32 28.6244 24.784C29.2324 25.232 29.9524 25.456 30.7844 25.456C32.1924 25.456 33.2164 24.88 33.8564 23.728L36.5204 24.928C35.9604 25.936 35.1684 26.744 34.1444 27.352C33.1364 27.944 31.9844 28.24 30.6884 28.24C28.8004 28.24 27.2244 27.624 25.9604 26.392C24.6964 25.16 24.0644 23.632 24.0644 21.808C24.0644 19.984 24.6884 18.456 25.9364 17.224C27.1844 15.992 28.7284 15.376 30.5684 15.376ZM30.5684 18.16C29.8484 18.16 29.2004 18.376 28.6244 18.808C28.0644 19.224 27.6724 19.784 27.4484 20.488H33.7124C33.4884 19.784 33.0964 19.224 32.5364 18.808C31.9764 18.376 31.3204 18.16 30.5684 18.16ZM46.5929 15.376C48.1289 15.376 49.4009 15.992 50.4089 17.224C51.4169 18.456 51.9209 19.984 51.9209 21.808C51.9209 23.632 51.4169 25.16 50.4089 26.392C49.4009 27.624 48.1289 28.24 46.5929 28.24C45.5049 28.24 44.5609 27.904 43.7609 27.232C42.9769 26.544 42.4009 25.616 42.0329 24.448V28H38.7929V10.24H42.0329V19.168C42.4009 18 42.9769 17.08 43.7609 16.408C44.5609 15.72 45.5049 15.376 46.5929 15.376ZM45.4169 25.288C46.2969 25.288 47.0409 24.96 47.6489 24.304C48.2569 23.632 48.5609 22.8 48.5609 21.808C48.5609 20.832 48.2569 20.016 47.6489 19.36C47.0409 18.688 46.2969 18.352 45.4169 18.352C44.4409 18.352 43.6329 18.68 42.9929 19.336C42.3529 19.992 42.0329 20.816 42.0329 21.808C42.0329 22.8 42.3529 23.632 42.9929 24.304C43.6329 24.96 44.4409 25.288 45.4169 25.288ZM53.2912 12.184C53.2912 11.64 53.4832 11.184 53.8672 10.816C54.2512 10.432 54.7152 10.24 55.2592 10.24C55.7872 10.24 56.2432 10.432 56.6272 10.816C57.0112 11.184 57.2032 11.64 57.2032 12.184C57.2032 12.712 57.0112 13.168 56.6272 13.552C56.2432 13.936 55.7872 14.128 55.2592 14.128C54.7152 14.128 54.2512 13.936 53.8672 13.552C53.4832 13.168 53.2912 12.712 53.2912 12.184ZM56.8672 28H53.6272V15.616H56.8672V28ZM66.5752 15.376C67.9512 15.376 69.0552 15.856 69.8872 16.816C70.7352 17.776 71.1592 19 71.1592 20.488V28H67.9192V21.064C67.9192 20.264 67.6632 19.608 67.1512 19.096C66.6392 18.584 65.9992 18.328 65.2312 18.328C64.3672 18.328 63.6632 18.584 63.1192 19.096C62.5752 19.608 62.3032 20.264 62.3032 21.064V28H59.0632V15.616H62.3032V18.784C62.6232 17.728 63.1592 16.896 63.9112 16.288C64.6792 15.68 65.5672 15.376 66.5752 15.376ZM78.4488 15.376C80.0168 15.376 81.2888 15.784 82.2648 16.6C83.2408 17.416 83.7288 18.608 83.7288 20.176V28H80.4888V24.928C79.8008 27.136 78.3768 28.24 76.2168 28.24C75.2088 28.24 74.3448 27.912 73.6248 27.256C72.9048 26.6 72.5448 25.744 72.5448 24.688C72.5448 22.368 74.1368 21.04 77.3208 20.704L79.3368 20.512C80.1048 20.464 80.4888 20.136 80.4888 19.528C80.4888 19.08 80.2968 18.72 79.9128 18.448C79.5448 18.176 79.0648 18.04 78.4728 18.04C77.8328 18.04 77.3048 18.208 76.8888 18.544C76.4888 18.864 76.2328 19.32 76.1208 19.912L72.9048 19.192C73.0808 18.088 73.6648 17.176 74.6568 16.456C75.6488 15.736 76.9128 15.376 78.4488 15.376ZM77.3688 25.672C78.2168 25.672 78.9448 25.384 79.5528 24.808C80.1768 24.232 80.4888 23.568 80.4888 22.816V22.504C80.2968 22.68 79.9288 22.8 79.3848 22.864L77.2968 23.104C76.8328 23.168 76.4648 23.32 76.1928 23.56C75.9208 23.784 75.7848 24.072 75.7848 24.424C75.7848 24.792 75.9288 25.096 76.2168 25.336C76.5048 25.56 76.8888 25.672 77.3688 25.672ZM89.0422 15.616V18.832C89.4422 17.328 90.0582 16.328 90.8902 15.832C91.7382 15.336 92.6662 15.248 93.6742 15.568V18.64C92.3782 18.192 91.2822 18.216 90.3862 18.712C89.4902 19.192 89.0422 19.976 89.0422 21.064V28H85.8022V15.616H89.0422Z" fill="black"/>
</svg>
